<?xml version="1.0" standalone="no"?>
<!DOCTYPE svg PUBLIC "-//W3C//DTD SVG 20010904//EN"
 "http://www.w3.org/TR/2001/REC-SVG-20010904/DTD/svg10.dtd">
<svg version="1.0" xmlns="http://www.w3.org/2000/svg"
 width="2362.000000pt" height="2362.000000pt" viewBox="0 0 2362.000000 2362.000000"
 preserveAspectRatio="xMidYMid meet">
<metadata>
Created by potrace 1.14, written by Peter Selinger 2001-2017
</metadata>
<g transform="translate(0.000000,2362.000000) scale(0.100000,-0.100000)"
fill="#000000" stroke="none">
<path d="M1890 14335 l0 -6685 360 0 360 0 2 5868 3 5869 202 -451 c111 -248
333 -743 494 -1101 160 -357 396 -884 524 -1170 128 -286 622 -1388 1098
-2450 476 -1061 1177 -2627 1559 -3480 383 -852 850 -1895 1039 -2317 l344
-768 406 0 407 0 70 158 c217 486 397 887 1047 2337 985 2197 2003 4470 3155
7040 535 1194 976 2177 981 2185 5 8 9 -977 9 -2242 l0 -2258 -935 0 -935 0 0
-6685 0 -6686 2413 4 c2576 4 2482 2 2863 52 447 58 835 155 1204 300 138 54
418 193 543 269 635 387 1175 993 1548 1736 441 879 714 2150 779 3620 13 291
13 1131 0 1420 -58 1311 -296 2510 -665 3355 -234 537 -538 993 -924 1388
-205 210 -394 369 -606 512 -593 398 -1337 630 -2230 695 -254 18 -281 18
-1322 19 l-1013 1 0 3075 0 3075 -393 0 -393 0 -56 -127 c-31 -71 -160 -360
-286 -643 -126 -283 -519 -1163 -872 -1955 -353 -792 -725 -1627 -827 -1855
-102 -228 -251 -561 -330 -740 -80 -179 -227 -509 -328 -735 -101 -225 -257
-576 -348 -780 -290 -651 -1726 -3871 -2114 -4740 -207 -462 -387 -868 -402
-902 -14 -35 -28 -63 -31 -63 -3 0 -137 296 -299 658 -162 361 -388 864 -502
1117 -113 253 -421 939 -684 1525 -972 2166 -1145 2552 -1705 3800 -315 701
-610 1358 -655 1460 -46 102 -232 518 -415 925 -183 407 -368 819 -411 915
-43 96 -276 616 -518 1155 l-440 980 -385 3 -386 2 0 -6685z m12060 -3410 l0
-3275 360 0 360 0 0 3275 0 3275 973 0 c534 0 1050 -5 1144 -10 776 -43 1425
-229 1953 -560 394 -247 792 -659 1082 -1121 254 -406 436 -848 577 -1404 159
-633 240 -1160 298 -1940 25 -350 25 -1609 0 -1965 -56 -776 -144 -1355 -298
-1962 -181 -713 -447 -1271 -846 -1774 -177 -223 -510 -533 -733 -681 -485
-324 -1125 -530 -1825 -588 -44 -4 -96 -9 -115 -13 -19 -3 -945 -7 -2057 -9
l-2023 -4 0 6016 0 6015 575 0 575 0 0 -3275z"/>
</g>
</svg>
